<mxfile host="app.diagrams.net" agent="Mozilla/5.0 (Windows NT 10.0; Win64; x64) AppleWebKit/537.36 (KHTML, like Gecko) Chrome/132.0.0.0 Safari/537.36 OPR/117.0.0.0" version="26.1.0">
  <diagram id="R2lEEEUBdFMjLlhIrx00" name="Page-1">
    <mxGraphModel dx="3470" dy="3428" grid="1" gridSize="10" guides="1" tooltips="1" connect="1" arrows="1" fold="1" page="1" pageScale="1" pageWidth="850" pageHeight="1100" math="0" shadow="0" extFonts="Permanent Marker^https://fonts.googleapis.com/css?family=Permanent+Marker">
      <root>
        <mxCell id="0" />
        <mxCell id="1" parent="0" />
        <mxCell id="GJG5uDYhKZacEUopZmgJ-157" value="" style="rounded=0;whiteSpace=wrap;html=1;" vertex="1" parent="1">
          <mxGeometry x="-250" y="-1160" width="2940" height="1470" as="geometry" />
        </mxCell>
        <mxCell id="GJG5uDYhKZacEUopZmgJ-106" value="" style="rounded=0;whiteSpace=wrap;html=1;fillColor=#f5f5f5;strokeColor=#666666;fontColor=#333333;movable=1;resizable=1;rotatable=1;deletable=1;editable=1;locked=0;connectable=1;" vertex="1" parent="1">
          <mxGeometry x="-200" y="-1130" width="380" height="60" as="geometry" />
        </mxCell>
        <mxCell id="GJG5uDYhKZacEUopZmgJ-107" value="&lt;font style=&quot;font-size: 30px;&quot;&gt;Databases_Schema&lt;/font&gt;" style="text;html=1;align=center;verticalAlign=middle;whiteSpace=wrap;rounded=0;movable=1;resizable=1;rotatable=1;deletable=1;editable=1;locked=0;connectable=1;fontStyle=1" vertex="1" parent="1">
          <mxGeometry x="-40" y="-1115" width="60" height="30" as="geometry" />
        </mxCell>
        <mxCell id="GJG5uDYhKZacEUopZmgJ-111" value="&lt;font style=&quot;font-size: 14px;&quot;&gt;Pharmacy_db&lt;/font&gt;" style="shape=folder;fontStyle=1;tabWidth=110;tabHeight=30;tabPosition=left;html=1;boundedLbl=1;labelInHeader=1;container=1;collapsible=0;recursiveResize=0;whiteSpace=wrap;" vertex="1" parent="1">
          <mxGeometry x="1655" y="-917" width="940" height="517" as="geometry" />
        </mxCell>
        <mxCell id="GJG5uDYhKZacEUopZmgJ-42" value="Pharmacy" style="shape=table;startSize=25;container=1;collapsible=1;childLayout=tableLayout;fixedRows=1;rowLines=0;fontStyle=1;align=center;resizeLast=1;fillColor=#dae8fc;strokeColor=#6c8ebf;fontSize=16;" vertex="1" parent="GJG5uDYhKZacEUopZmgJ-111">
          <mxGeometry x="320" y="55" width="260" height="155" as="geometry" />
        </mxCell>
        <mxCell id="GJG5uDYhKZacEUopZmgJ-43" value="" style="shape=partialRectangle;collapsible=0;dropTarget=0;pointerEvents=0;fillColor=none;points=[[0,0.5],[1,0.5]];portConstraint=eastwest;top=0;left=0;right=0;bottom=1;fontSize=16;" vertex="1" parent="GJG5uDYhKZacEUopZmgJ-42">
          <mxGeometry y="25" width="260" height="20" as="geometry" />
        </mxCell>
        <mxCell id="GJG5uDYhKZacEUopZmgJ-44" value="PK" style="shape=partialRectangle;overflow=hidden;connectable=0;fillColor=none;top=0;left=0;bottom=0;right=0;fontStyle=1;fontSize=16;" vertex="1" parent="GJG5uDYhKZacEUopZmgJ-43">
          <mxGeometry width="30" height="20" as="geometry">
            <mxRectangle width="30" height="20" as="alternateBounds" />
          </mxGeometry>
        </mxCell>
        <mxCell id="GJG5uDYhKZacEUopZmgJ-45" value="pharmacy_id long NOT NULL " style="shape=partialRectangle;overflow=hidden;connectable=0;fillColor=none;top=0;left=0;bottom=0;right=0;align=left;spacingLeft=6;fontStyle=1;fontSize=16;" vertex="1" parent="GJG5uDYhKZacEUopZmgJ-43">
          <mxGeometry x="30" width="230" height="20" as="geometry">
            <mxRectangle width="230" height="20" as="alternateBounds" />
          </mxGeometry>
        </mxCell>
        <mxCell id="GJG5uDYhKZacEUopZmgJ-46" value="" style="shape=partialRectangle;collapsible=0;dropTarget=0;pointerEvents=0;fillColor=none;points=[[0,0.5],[1,0.5]];portConstraint=eastwest;top=0;left=0;right=0;bottom=0;fontSize=16;" vertex="1" parent="GJG5uDYhKZacEUopZmgJ-42">
          <mxGeometry y="45" width="260" height="25" as="geometry" />
        </mxCell>
        <mxCell id="GJG5uDYhKZacEUopZmgJ-47" value="FK1" style="shape=partialRectangle;overflow=hidden;connectable=0;fillColor=none;top=0;left=0;bottom=0;right=0;fontSize=16;" vertex="1" parent="GJG5uDYhKZacEUopZmgJ-46">
          <mxGeometry width="30" height="25" as="geometry">
            <mxRectangle width="30" height="25" as="alternateBounds" />
          </mxGeometry>
        </mxCell>
        <mxCell id="GJG5uDYhKZacEUopZmgJ-48" value="prescription_id : Long " style="shape=partialRectangle;overflow=hidden;connectable=0;fillColor=none;top=0;left=0;bottom=0;right=0;align=left;spacingLeft=6;fontStyle=4;fontSize=16;" vertex="1" parent="GJG5uDYhKZacEUopZmgJ-46">
          <mxGeometry x="30" width="230" height="25" as="geometry">
            <mxRectangle width="230" height="25" as="alternateBounds" />
          </mxGeometry>
        </mxCell>
        <mxCell id="GJG5uDYhKZacEUopZmgJ-49" value="" style="shape=partialRectangle;collapsible=0;dropTarget=0;pointerEvents=0;fillColor=none;points=[[0,0.5],[1,0.5]];portConstraint=eastwest;top=0;left=0;right=0;bottom=0;fontSize=16;" vertex="1" parent="GJG5uDYhKZacEUopZmgJ-42">
          <mxGeometry y="70" width="260" height="80" as="geometry" />
        </mxCell>
        <mxCell id="GJG5uDYhKZacEUopZmgJ-50" value="" style="shape=partialRectangle;overflow=hidden;connectable=0;fillColor=none;top=0;left=0;bottom=0;right=0;fontSize=16;" vertex="1" parent="GJG5uDYhKZacEUopZmgJ-49">
          <mxGeometry width="30" height="80" as="geometry">
            <mxRectangle width="30" height="80" as="alternateBounds" />
          </mxGeometry>
        </mxCell>
        <mxCell id="GJG5uDYhKZacEUopZmgJ-51" value="name : String&#xa;address : String&#xa;phone_number : String" style="shape=partialRectangle;overflow=hidden;connectable=0;fillColor=none;top=0;left=0;bottom=0;right=0;align=left;spacingLeft=6;fontSize=16;" vertex="1" parent="GJG5uDYhKZacEUopZmgJ-49">
          <mxGeometry x="30" width="230" height="80" as="geometry">
            <mxRectangle width="230" height="80" as="alternateBounds" />
          </mxGeometry>
        </mxCell>
        <mxCell id="GJG5uDYhKZacEUopZmgJ-63" value="MedicationDispensing" style="shape=table;startSize=30;container=1;collapsible=1;childLayout=tableLayout;fixedRows=1;rowLines=0;fontStyle=1;align=center;resizeLast=1;fillColor=#dae8fc;strokeColor=#6c8ebf;fontSize=16;" vertex="1" parent="GJG5uDYhKZacEUopZmgJ-111">
          <mxGeometry x="500" y="305" width="380" height="160" as="geometry" />
        </mxCell>
        <mxCell id="GJG5uDYhKZacEUopZmgJ-64" value="" style="shape=partialRectangle;collapsible=0;dropTarget=0;pointerEvents=0;fillColor=none;points=[[0,0.5],[1,0.5]];portConstraint=eastwest;top=0;left=0;right=0;bottom=1;fontSize=16;" vertex="1" parent="GJG5uDYhKZacEUopZmgJ-63">
          <mxGeometry y="30" width="380" height="20" as="geometry" />
        </mxCell>
        <mxCell id="GJG5uDYhKZacEUopZmgJ-65" value="PK" style="shape=partialRectangle;overflow=hidden;connectable=0;fillColor=none;top=0;left=0;bottom=0;right=0;fontStyle=1;fontSize=16;" vertex="1" parent="GJG5uDYhKZacEUopZmgJ-64">
          <mxGeometry width="30" height="20" as="geometry">
            <mxRectangle width="30" height="20" as="alternateBounds" />
          </mxGeometry>
        </mxCell>
        <mxCell id="GJG5uDYhKZacEUopZmgJ-66" value="medicationDispensing_id long NOT NULL " style="shape=partialRectangle;overflow=hidden;connectable=0;fillColor=none;top=0;left=0;bottom=0;right=0;align=left;spacingLeft=6;fontStyle=1;fontSize=16;" vertex="1" parent="GJG5uDYhKZacEUopZmgJ-64">
          <mxGeometry x="30" width="350" height="20" as="geometry">
            <mxRectangle width="350" height="20" as="alternateBounds" />
          </mxGeometry>
        </mxCell>
        <mxCell id="GJG5uDYhKZacEUopZmgJ-67" value="" style="shape=partialRectangle;collapsible=0;dropTarget=0;pointerEvents=0;fillColor=none;points=[[0,0.5],[1,0.5]];portConstraint=eastwest;top=0;left=0;right=0;bottom=0;fontSize=16;" vertex="1" parent="GJG5uDYhKZacEUopZmgJ-63">
          <mxGeometry y="50" width="380" height="40" as="geometry" />
        </mxCell>
        <mxCell id="GJG5uDYhKZacEUopZmgJ-68" value="FK1&#xa;FK2" style="shape=partialRectangle;overflow=hidden;connectable=0;fillColor=none;top=0;left=0;bottom=0;right=0;fontSize=16;" vertex="1" parent="GJG5uDYhKZacEUopZmgJ-67">
          <mxGeometry width="30" height="40" as="geometry">
            <mxRectangle width="30" height="40" as="alternateBounds" />
          </mxGeometry>
        </mxCell>
        <mxCell id="GJG5uDYhKZacEUopZmgJ-69" value="prescription_id : Long &lt; Prescription_id&gt;&gt;&#xa;pharmacy_id : Long &lt; Pharmacy_id&gt;&gt;" style="shape=partialRectangle;overflow=hidden;connectable=0;fillColor=none;top=0;left=0;bottom=0;right=0;align=left;spacingLeft=6;fontStyle=4;fontSize=16;" vertex="1" parent="GJG5uDYhKZacEUopZmgJ-67">
          <mxGeometry x="30" width="350" height="40" as="geometry">
            <mxRectangle width="350" height="40" as="alternateBounds" />
          </mxGeometry>
        </mxCell>
        <mxCell id="GJG5uDYhKZacEUopZmgJ-70" value="" style="shape=partialRectangle;collapsible=0;dropTarget=0;pointerEvents=0;fillColor=none;points=[[0,0.5],[1,0.5]];portConstraint=eastwest;top=0;left=0;right=0;bottom=0;fontSize=16;" vertex="1" parent="GJG5uDYhKZacEUopZmgJ-63">
          <mxGeometry y="90" width="380" height="60" as="geometry" />
        </mxCell>
        <mxCell id="GJG5uDYhKZacEUopZmgJ-71" value="" style="shape=partialRectangle;overflow=hidden;connectable=0;fillColor=none;top=0;left=0;bottom=0;right=0;fontSize=16;" vertex="1" parent="GJG5uDYhKZacEUopZmgJ-70">
          <mxGeometry width="30" height="60" as="geometry">
            <mxRectangle width="30" height="60" as="alternateBounds" />
          </mxGeometry>
        </mxCell>
        <mxCell id="GJG5uDYhKZacEUopZmgJ-72" value=" isDispensed : Boolean &#xa; dispensationDate : DateTime" style="shape=partialRectangle;overflow=hidden;connectable=0;fillColor=none;top=0;left=0;bottom=0;right=0;align=left;spacingLeft=6;fontSize=16;" vertex="1" parent="GJG5uDYhKZacEUopZmgJ-70">
          <mxGeometry x="30" width="350" height="60" as="geometry">
            <mxRectangle width="350" height="60" as="alternateBounds" />
          </mxGeometry>
        </mxCell>
        <mxCell id="GJG5uDYhKZacEUopZmgJ-98" value="" style="edgeStyle=entityRelationEdgeStyle;endArrow=ERzeroToMany;startArrow=ERone;endFill=1;startFill=0;exitX=1.002;exitY=0.044;exitDx=0;exitDy=0;exitPerimeter=0;entryX=0;entryY=0.25;entryDx=0;entryDy=0;fontSize=16;" edge="1" parent="GJG5uDYhKZacEUopZmgJ-111" source="GJG5uDYhKZacEUopZmgJ-49" target="GJG5uDYhKZacEUopZmgJ-63">
          <mxGeometry width="100" height="100" relative="1" as="geometry">
            <mxPoint x="-89" y="931" as="sourcePoint" />
            <mxPoint x="-49" y="1145" as="targetPoint" />
          </mxGeometry>
        </mxCell>
        <mxCell id="GJG5uDYhKZacEUopZmgJ-52" value="PrescriptionValidation" style="shape=table;startSize=30;container=1;collapsible=1;childLayout=tableLayout;fixedRows=1;rowLines=0;fontStyle=1;align=center;resizeLast=1;fillColor=#dae8fc;strokeColor=#6c8ebf;fontSize=16;" vertex="1" parent="GJG5uDYhKZacEUopZmgJ-111">
          <mxGeometry x="40" y="285" width="355" height="180" as="geometry" />
        </mxCell>
        <mxCell id="GJG5uDYhKZacEUopZmgJ-53" value="" style="shape=partialRectangle;collapsible=0;dropTarget=0;pointerEvents=0;fillColor=none;points=[[0,0.5],[1,0.5]];portConstraint=eastwest;top=0;left=0;right=0;bottom=1;fontSize=16;" vertex="1" parent="GJG5uDYhKZacEUopZmgJ-52">
          <mxGeometry y="30" width="355" height="20" as="geometry" />
        </mxCell>
        <mxCell id="GJG5uDYhKZacEUopZmgJ-54" value="PK" style="shape=partialRectangle;overflow=hidden;connectable=0;fillColor=none;top=0;left=0;bottom=0;right=0;fontStyle=1;fontSize=16;" vertex="1" parent="GJG5uDYhKZacEUopZmgJ-53">
          <mxGeometry width="30" height="20" as="geometry">
            <mxRectangle width="30" height="20" as="alternateBounds" />
          </mxGeometry>
        </mxCell>
        <mxCell id="GJG5uDYhKZacEUopZmgJ-55" value="prescriptionValidation_id long NOT NULL " style="shape=partialRectangle;overflow=hidden;connectable=0;fillColor=none;top=0;left=0;bottom=0;right=0;align=left;spacingLeft=6;fontStyle=1;fontSize=16;" vertex="1" parent="GJG5uDYhKZacEUopZmgJ-53">
          <mxGeometry x="30" width="325" height="20" as="geometry">
            <mxRectangle width="325" height="20" as="alternateBounds" />
          </mxGeometry>
        </mxCell>
        <mxCell id="GJG5uDYhKZacEUopZmgJ-56" value="" style="shape=partialRectangle;collapsible=0;dropTarget=0;pointerEvents=0;fillColor=none;points=[[0,0.5],[1,0.5]];portConstraint=eastwest;top=0;left=0;right=0;bottom=0;fontSize=16;" vertex="1" parent="GJG5uDYhKZacEUopZmgJ-52">
          <mxGeometry y="50" width="355" height="50" as="geometry" />
        </mxCell>
        <mxCell id="GJG5uDYhKZacEUopZmgJ-57" value="FK1&#xa;FK2" style="shape=partialRectangle;overflow=hidden;connectable=0;fillColor=none;top=0;left=0;bottom=0;right=0;fontSize=16;" vertex="1" parent="GJG5uDYhKZacEUopZmgJ-56">
          <mxGeometry width="30" height="50" as="geometry">
            <mxRectangle width="30" height="50" as="alternateBounds" />
          </mxGeometry>
        </mxCell>
        <mxCell id="GJG5uDYhKZacEUopZmgJ-58" value="prescription_id : Long &lt; Prescription_id&gt;&gt;&#xa;pharmacy_id : Long &lt; Pharmacy_id&gt;&gt;" style="shape=partialRectangle;overflow=hidden;connectable=0;fillColor=none;top=0;left=0;bottom=0;right=0;align=left;spacingLeft=6;fontStyle=4;fontSize=16;" vertex="1" parent="GJG5uDYhKZacEUopZmgJ-56">
          <mxGeometry x="30" width="325" height="50" as="geometry">
            <mxRectangle width="325" height="50" as="alternateBounds" />
          </mxGeometry>
        </mxCell>
        <mxCell id="GJG5uDYhKZacEUopZmgJ-59" value="" style="shape=partialRectangle;collapsible=0;dropTarget=0;pointerEvents=0;fillColor=none;points=[[0,0.5],[1,0.5]];portConstraint=eastwest;top=0;left=0;right=0;bottom=0;fontSize=16;" vertex="1" parent="GJG5uDYhKZacEUopZmgJ-52">
          <mxGeometry y="100" width="355" height="80" as="geometry" />
        </mxCell>
        <mxCell id="GJG5uDYhKZacEUopZmgJ-60" value="" style="shape=partialRectangle;overflow=hidden;connectable=0;fillColor=none;top=0;left=0;bottom=0;right=0;fontSize=16;" vertex="1" parent="GJG5uDYhKZacEUopZmgJ-59">
          <mxGeometry width="30" height="80" as="geometry">
            <mxRectangle width="30" height="80" as="alternateBounds" />
          </mxGeometry>
        </mxCell>
        <mxCell id="GJG5uDYhKZacEUopZmgJ-61" value="valid : Boolean&#xa;validation_message : String&#xa;validated_at : DateTime" style="shape=partialRectangle;overflow=hidden;connectable=0;fillColor=none;top=0;left=0;bottom=0;right=0;align=left;spacingLeft=6;fontSize=16;" vertex="1" parent="GJG5uDYhKZacEUopZmgJ-59">
          <mxGeometry x="30" width="325" height="80" as="geometry">
            <mxRectangle width="325" height="80" as="alternateBounds" />
          </mxGeometry>
        </mxCell>
        <mxCell id="GJG5uDYhKZacEUopZmgJ-97" value="" style="edgeStyle=entityRelationEdgeStyle;endArrow=ERzeroToMany;startArrow=ERone;endFill=1;startFill=0;exitX=0.534;exitY=1.053;exitDx=0;exitDy=0;entryX=0;entryY=0.077;entryDx=0;entryDy=0;entryPerimeter=0;exitPerimeter=0;fontSize=16;" edge="1" parent="GJG5uDYhKZacEUopZmgJ-111" source="GJG5uDYhKZacEUopZmgJ-49" target="GJG5uDYhKZacEUopZmgJ-52">
          <mxGeometry width="100" height="100" relative="1" as="geometry">
            <mxPoint x="251.00000000000023" y="1110" as="sourcePoint" />
            <mxPoint x="-39" y="1250" as="targetPoint" />
            <Array as="points">
              <mxPoint x="336.97" y="1168.75" />
              <mxPoint x="331" y="1220" />
            </Array>
          </mxGeometry>
        </mxCell>
        <mxCell id="GJG5uDYhKZacEUopZmgJ-114" value="&lt;font style=&quot;font-size: 14px;&quot;&gt;Prescription_db&lt;/font&gt;" style="shape=folder;fontStyle=1;tabWidth=110;tabHeight=30;tabPosition=left;html=1;boundedLbl=1;labelInHeader=1;container=1;collapsible=0;recursiveResize=0;whiteSpace=wrap;" vertex="1" parent="1">
          <mxGeometry x="-80" y="-940" width="780" height="635" as="geometry" />
        </mxCell>
        <mxCell id="GJG5uDYhKZacEUopZmgJ-11" value="Prescription" style="shape=table;startSize=30;container=1;collapsible=1;childLayout=tableLayout;fixedRows=1;rowLines=0;fontStyle=1;align=center;resizeLast=1;fillColor=#dae8fc;strokeColor=#6c8ebf;fontSize=16;" vertex="1" parent="GJG5uDYhKZacEUopZmgJ-114">
          <mxGeometry x="160" y="210" width="480" height="180" as="geometry" />
        </mxCell>
        <mxCell id="GJG5uDYhKZacEUopZmgJ-12" value="" style="shape=partialRectangle;collapsible=0;dropTarget=0;pointerEvents=0;fillColor=none;points=[[0,0.5],[1,0.5]];portConstraint=eastwest;top=0;left=0;right=0;bottom=1;fontSize=16;" vertex="1" parent="GJG5uDYhKZacEUopZmgJ-11">
          <mxGeometry y="30" width="480" height="20" as="geometry" />
        </mxCell>
        <mxCell id="GJG5uDYhKZacEUopZmgJ-13" value="PK" style="shape=partialRectangle;overflow=hidden;connectable=0;fillColor=none;top=0;left=0;bottom=0;right=0;fontStyle=1;fontSize=16;" vertex="1" parent="GJG5uDYhKZacEUopZmgJ-12">
          <mxGeometry width="30" height="20" as="geometry">
            <mxRectangle width="30" height="20" as="alternateBounds" />
          </mxGeometry>
        </mxCell>
        <mxCell id="GJG5uDYhKZacEUopZmgJ-14" value="prescription_id Long NOT NULL&#xa;" style="shape=partialRectangle;overflow=hidden;connectable=0;fillColor=none;top=0;left=0;bottom=0;right=0;align=left;spacingLeft=6;fontStyle=1;fontSize=16;" vertex="1" parent="GJG5uDYhKZacEUopZmgJ-12">
          <mxGeometry x="30" width="450" height="20" as="geometry">
            <mxRectangle width="450" height="20" as="alternateBounds" />
          </mxGeometry>
        </mxCell>
        <mxCell id="GJG5uDYhKZacEUopZmgJ-15" value="" style="shape=partialRectangle;collapsible=0;dropTarget=0;pointerEvents=0;fillColor=none;points=[[0,0.5],[1,0.5]];portConstraint=eastwest;top=0;left=0;right=0;bottom=0;fontSize=16;" vertex="1" parent="GJG5uDYhKZacEUopZmgJ-11">
          <mxGeometry y="50" width="480" height="50" as="geometry" />
        </mxCell>
        <mxCell id="GJG5uDYhKZacEUopZmgJ-16" value="FK1&#xa;FK2" style="shape=partialRectangle;overflow=hidden;connectable=0;fillColor=none;top=0;left=0;bottom=0;right=0;fontSize=16;" vertex="1" parent="GJG5uDYhKZacEUopZmgJ-15">
          <mxGeometry width="30" height="50" as="geometry">
            <mxRectangle width="30" height="50" as="alternateBounds" />
          </mxGeometry>
        </mxCell>
        <mxCell id="GJG5uDYhKZacEUopZmgJ-17" value="doctor_id : Long &lt; User_id&gt;&gt;&#xa;patient_id : Long &lt; User_id&gt;&gt;" style="shape=partialRectangle;overflow=hidden;connectable=0;fillColor=none;top=0;left=0;bottom=0;right=0;align=left;spacingLeft=6;fontStyle=4;fontSize=16;" vertex="1" parent="GJG5uDYhKZacEUopZmgJ-15">
          <mxGeometry x="30" width="450" height="50" as="geometry">
            <mxRectangle width="450" height="50" as="alternateBounds" />
          </mxGeometry>
        </mxCell>
        <mxCell id="GJG5uDYhKZacEUopZmgJ-18" value="" style="shape=partialRectangle;collapsible=0;dropTarget=0;pointerEvents=0;fillColor=none;points=[[0,0.5],[1,0.5]];portConstraint=eastwest;top=0;left=0;right=0;bottom=0;fontSize=16;" vertex="1" parent="GJG5uDYhKZacEUopZmgJ-11">
          <mxGeometry y="100" width="480" height="80" as="geometry" />
        </mxCell>
        <mxCell id="GJG5uDYhKZacEUopZmgJ-19" value="" style="shape=partialRectangle;overflow=hidden;connectable=0;fillColor=none;top=0;left=0;bottom=0;right=0;fontSize=16;" vertex="1" parent="GJG5uDYhKZacEUopZmgJ-18">
          <mxGeometry width="30" height="80" as="geometry">
            <mxRectangle width="30" height="80" as="alternateBounds" />
          </mxGeometry>
        </mxCell>
        <mxCell id="GJG5uDYhKZacEUopZmgJ-20" value="code : String &lt;&gt;&#xa;created_at : DateTime&#xa;expiration_date : DateTime&#xa;status : ENUM(SENT, PENDING, VALIDATED, REJECTED)&#xa;" style="shape=partialRectangle;overflow=hidden;connectable=0;fillColor=none;top=0;left=0;bottom=0;right=0;align=left;spacingLeft=6;fontSize=16;" vertex="1" parent="GJG5uDYhKZacEUopZmgJ-18">
          <mxGeometry x="30" width="450" height="80" as="geometry">
            <mxRectangle width="450" height="80" as="alternateBounds" />
          </mxGeometry>
        </mxCell>
        <mxCell id="GJG5uDYhKZacEUopZmgJ-32" value="SecureCode" style="shape=table;startSize=30;container=1;collapsible=1;childLayout=tableLayout;fixedRows=1;rowLines=0;fontStyle=1;align=center;resizeLast=1;fillColor=#dae8fc;strokeColor=#6c8ebf;fontSize=16;" vertex="1" parent="GJG5uDYhKZacEUopZmgJ-114">
          <mxGeometry x="410" y="470" width="280" height="130" as="geometry" />
        </mxCell>
        <mxCell id="GJG5uDYhKZacEUopZmgJ-33" value="" style="shape=partialRectangle;collapsible=0;dropTarget=0;pointerEvents=0;fillColor=none;points=[[0,0.5],[1,0.5]];portConstraint=eastwest;top=0;left=0;right=0;bottom=1;fontSize=16;" vertex="1" parent="GJG5uDYhKZacEUopZmgJ-32">
          <mxGeometry y="30" width="280" height="20" as="geometry" />
        </mxCell>
        <mxCell id="GJG5uDYhKZacEUopZmgJ-34" value="PK" style="shape=partialRectangle;overflow=hidden;connectable=0;fillColor=none;top=0;left=0;bottom=0;right=0;fontStyle=1;fontSize=16;" vertex="1" parent="GJG5uDYhKZacEUopZmgJ-33">
          <mxGeometry width="30" height="20" as="geometry">
            <mxRectangle width="30" height="20" as="alternateBounds" />
          </mxGeometry>
        </mxCell>
        <mxCell id="GJG5uDYhKZacEUopZmgJ-35" value="secureCode_id long NOT NULL " style="shape=partialRectangle;overflow=hidden;connectable=0;fillColor=none;top=0;left=0;bottom=0;right=0;align=left;spacingLeft=6;fontStyle=1;fontSize=16;" vertex="1" parent="GJG5uDYhKZacEUopZmgJ-33">
          <mxGeometry x="30" width="250" height="20" as="geometry">
            <mxRectangle width="250" height="20" as="alternateBounds" />
          </mxGeometry>
        </mxCell>
        <mxCell id="GJG5uDYhKZacEUopZmgJ-36" value="" style="shape=partialRectangle;collapsible=0;dropTarget=0;pointerEvents=0;fillColor=none;points=[[0,0.5],[1,0.5]];portConstraint=eastwest;top=0;left=0;right=0;bottom=0;fontSize=16;" vertex="1" parent="GJG5uDYhKZacEUopZmgJ-32">
          <mxGeometry y="50" width="280" height="30" as="geometry" />
        </mxCell>
        <mxCell id="GJG5uDYhKZacEUopZmgJ-37" value="FK1" style="shape=partialRectangle;overflow=hidden;connectable=0;fillColor=none;top=0;left=0;bottom=0;right=0;fontSize=16;" vertex="1" parent="GJG5uDYhKZacEUopZmgJ-36">
          <mxGeometry width="30" height="30" as="geometry">
            <mxRectangle width="30" height="30" as="alternateBounds" />
          </mxGeometry>
        </mxCell>
        <mxCell id="GJG5uDYhKZacEUopZmgJ-38" value="prescription_id : Long " style="shape=partialRectangle;overflow=hidden;connectable=0;fillColor=none;top=0;left=0;bottom=0;right=0;align=left;spacingLeft=6;fontStyle=4;fontSize=16;" vertex="1" parent="GJG5uDYhKZacEUopZmgJ-36">
          <mxGeometry x="30" width="250" height="30" as="geometry">
            <mxRectangle width="250" height="30" as="alternateBounds" />
          </mxGeometry>
        </mxCell>
        <mxCell id="GJG5uDYhKZacEUopZmgJ-39" value="" style="shape=partialRectangle;collapsible=0;dropTarget=0;pointerEvents=0;fillColor=none;points=[[0,0.5],[1,0.5]];portConstraint=eastwest;top=0;left=0;right=0;bottom=0;fontSize=16;" vertex="1" parent="GJG5uDYhKZacEUopZmgJ-32">
          <mxGeometry y="80" width="280" height="50" as="geometry" />
        </mxCell>
        <mxCell id="GJG5uDYhKZacEUopZmgJ-40" value="" style="shape=partialRectangle;overflow=hidden;connectable=0;fillColor=none;top=0;left=0;bottom=0;right=0;fontSize=16;" vertex="1" parent="GJG5uDYhKZacEUopZmgJ-39">
          <mxGeometry width="30" height="50" as="geometry">
            <mxRectangle width="30" height="50" as="alternateBounds" />
          </mxGeometry>
        </mxCell>
        <mxCell id="GJG5uDYhKZacEUopZmgJ-41" value="code : String &#xa;expiry_date : DateTime" style="shape=partialRectangle;overflow=hidden;connectable=0;fillColor=none;top=0;left=0;bottom=0;right=0;align=left;spacingLeft=6;fontSize=16;" vertex="1" parent="GJG5uDYhKZacEUopZmgJ-39">
          <mxGeometry x="30" width="250" height="50" as="geometry">
            <mxRectangle width="250" height="50" as="alternateBounds" />
          </mxGeometry>
        </mxCell>
        <mxCell id="GJG5uDYhKZacEUopZmgJ-102" value="" style="edgeStyle=entityRelationEdgeStyle;endArrow=ERzeroToMany;startArrow=ERone;endFill=1;startFill=0;exitX=1;exitY=0.5;exitDx=0;exitDy=0;fontSize=16;entryX=0.999;entryY=0.107;entryDx=0;entryDy=0;entryPerimeter=0;" edge="1" parent="GJG5uDYhKZacEUopZmgJ-114" source="GJG5uDYhKZacEUopZmgJ-18" target="GJG5uDYhKZacEUopZmgJ-32">
          <mxGeometry width="100" height="100" relative="1" as="geometry">
            <mxPoint x="581.1100000000001" y="1125.0000000000002" as="sourcePoint" />
            <mxPoint x="300" y="1295" as="targetPoint" />
            <Array as="points">
              <mxPoint x="1005.97" y="1215.55" />
              <mxPoint x="1000" y="1266.8" />
            </Array>
          </mxGeometry>
        </mxCell>
        <mxCell id="GJG5uDYhKZacEUopZmgJ-117" value="Doctor" style="shape=table;startSize=30;container=1;collapsible=1;childLayout=tableLayout;fixedRows=1;rowLines=0;fontStyle=1;align=center;resizeLast=1;fillColor=#dae8fc;strokeColor=#6c8ebf;fontSize=16;" vertex="1" parent="GJG5uDYhKZacEUopZmgJ-114">
          <mxGeometry x="280" y="50" width="240" height="110" as="geometry" />
        </mxCell>
        <mxCell id="GJG5uDYhKZacEUopZmgJ-118" value="" style="shape=partialRectangle;collapsible=0;dropTarget=0;pointerEvents=0;fillColor=none;points=[[0,0.5],[1,0.5]];portConstraint=eastwest;top=0;left=0;right=0;bottom=1;fontSize=16;" vertex="1" parent="GJG5uDYhKZacEUopZmgJ-117">
          <mxGeometry y="30" width="240" height="20" as="geometry" />
        </mxCell>
        <mxCell id="GJG5uDYhKZacEUopZmgJ-119" value="PK" style="shape=partialRectangle;overflow=hidden;connectable=0;fillColor=none;top=0;left=0;bottom=0;right=0;fontStyle=1;fontSize=16;" vertex="1" parent="GJG5uDYhKZacEUopZmgJ-118">
          <mxGeometry width="30" height="20" as="geometry">
            <mxRectangle width="30" height="20" as="alternateBounds" />
          </mxGeometry>
        </mxCell>
        <mxCell id="GJG5uDYhKZacEUopZmgJ-120" value="Doctor_id long NOT NULL " style="shape=partialRectangle;overflow=hidden;connectable=0;fillColor=none;top=0;left=0;bottom=0;right=0;align=left;spacingLeft=6;fontStyle=1;fontSize=16;" vertex="1" parent="GJG5uDYhKZacEUopZmgJ-118">
          <mxGeometry x="30" width="210" height="20" as="geometry">
            <mxRectangle width="210" height="20" as="alternateBounds" />
          </mxGeometry>
        </mxCell>
        <mxCell id="GJG5uDYhKZacEUopZmgJ-121" value="" style="shape=partialRectangle;collapsible=0;dropTarget=0;pointerEvents=0;fillColor=none;points=[[0,0.5],[1,0.5]];portConstraint=eastwest;top=0;left=0;right=0;bottom=0;fontSize=16;" vertex="1" parent="GJG5uDYhKZacEUopZmgJ-117">
          <mxGeometry y="50" width="240" height="30" as="geometry" />
        </mxCell>
        <mxCell id="GJG5uDYhKZacEUopZmgJ-122" value="FK1" style="shape=partialRectangle;overflow=hidden;connectable=0;fillColor=none;top=0;left=0;bottom=0;right=0;fontSize=16;" vertex="1" parent="GJG5uDYhKZacEUopZmgJ-121">
          <mxGeometry width="30" height="30" as="geometry">
            <mxRectangle width="30" height="30" as="alternateBounds" />
          </mxGeometry>
        </mxCell>
        <mxCell id="GJG5uDYhKZacEUopZmgJ-123" value="user_id: Long &lt; User.id&gt;&gt;&#xa;" style="shape=partialRectangle;overflow=hidden;connectable=0;fillColor=none;top=0;left=0;bottom=0;right=0;align=left;spacingLeft=6;fontStyle=4;fontSize=16;" vertex="1" parent="GJG5uDYhKZacEUopZmgJ-121">
          <mxGeometry x="30" width="210" height="30" as="geometry">
            <mxRectangle width="210" height="30" as="alternateBounds" />
          </mxGeometry>
        </mxCell>
        <mxCell id="GJG5uDYhKZacEUopZmgJ-124" value="" style="shape=partialRectangle;collapsible=0;dropTarget=0;pointerEvents=0;fillColor=none;points=[[0,0.5],[1,0.5]];portConstraint=eastwest;top=0;left=0;right=0;bottom=0;fontSize=16;" vertex="1" parent="GJG5uDYhKZacEUopZmgJ-117">
          <mxGeometry y="80" width="240" height="30" as="geometry" />
        </mxCell>
        <mxCell id="GJG5uDYhKZacEUopZmgJ-125" value="" style="shape=partialRectangle;overflow=hidden;connectable=0;fillColor=none;top=0;left=0;bottom=0;right=0;fontSize=16;" vertex="1" parent="GJG5uDYhKZacEUopZmgJ-124">
          <mxGeometry width="30" height="30" as="geometry">
            <mxRectangle width="30" height="30" as="alternateBounds" />
          </mxGeometry>
        </mxCell>
        <mxCell id="GJG5uDYhKZacEUopZmgJ-126" value="specialty : String &lt;&gt;" style="shape=partialRectangle;overflow=hidden;connectable=0;fillColor=none;top=0;left=0;bottom=0;right=0;align=left;spacingLeft=6;fontSize=16;" vertex="1" parent="GJG5uDYhKZacEUopZmgJ-124">
          <mxGeometry x="30" width="210" height="30" as="geometry">
            <mxRectangle width="210" height="30" as="alternateBounds" />
          </mxGeometry>
        </mxCell>
        <mxCell id="GJG5uDYhKZacEUopZmgJ-21" value="Medication" style="shape=table;startSize=30;container=1;collapsible=1;childLayout=tableLayout;fixedRows=1;rowLines=0;fontStyle=1;align=center;resizeLast=1;fillColor=#dae8fc;strokeColor=#6c8ebf;fontSize=16;" vertex="1" parent="GJG5uDYhKZacEUopZmgJ-114">
          <mxGeometry x="40" y="437" width="300" height="180" as="geometry" />
        </mxCell>
        <mxCell id="GJG5uDYhKZacEUopZmgJ-22" value="" style="shape=partialRectangle;collapsible=0;dropTarget=0;pointerEvents=0;fillColor=none;points=[[0,0.5],[1,0.5]];portConstraint=eastwest;top=0;left=0;right=0;bottom=1;fontSize=16;" vertex="1" parent="GJG5uDYhKZacEUopZmgJ-21">
          <mxGeometry y="30" width="300" height="20" as="geometry" />
        </mxCell>
        <mxCell id="GJG5uDYhKZacEUopZmgJ-23" value="PK" style="shape=partialRectangle;overflow=hidden;connectable=0;fillColor=none;top=0;left=0;bottom=0;right=0;fontStyle=1;fontSize=16;" vertex="1" parent="GJG5uDYhKZacEUopZmgJ-22">
          <mxGeometry width="30" height="20" as="geometry">
            <mxRectangle width="30" height="20" as="alternateBounds" />
          </mxGeometry>
        </mxCell>
        <mxCell id="GJG5uDYhKZacEUopZmgJ-24" value="medication_id long NOT NULL " style="shape=partialRectangle;overflow=hidden;connectable=0;fillColor=none;top=0;left=0;bottom=0;right=0;align=left;spacingLeft=6;fontStyle=1;fontSize=16;" vertex="1" parent="GJG5uDYhKZacEUopZmgJ-22">
          <mxGeometry x="30" width="270" height="20" as="geometry">
            <mxRectangle width="270" height="20" as="alternateBounds" />
          </mxGeometry>
        </mxCell>
        <mxCell id="GJG5uDYhKZacEUopZmgJ-25" value="" style="shape=partialRectangle;collapsible=0;dropTarget=0;pointerEvents=0;fillColor=none;points=[[0,0.5],[1,0.5]];portConstraint=eastwest;top=0;left=0;right=0;bottom=0;fontSize=16;" vertex="1" parent="GJG5uDYhKZacEUopZmgJ-21">
          <mxGeometry y="50" width="300" height="25" as="geometry" />
        </mxCell>
        <mxCell id="GJG5uDYhKZacEUopZmgJ-26" value="FK1" style="shape=partialRectangle;overflow=hidden;connectable=0;fillColor=none;top=0;left=0;bottom=0;right=0;fontSize=16;" vertex="1" parent="GJG5uDYhKZacEUopZmgJ-25">
          <mxGeometry width="30" height="25" as="geometry">
            <mxRectangle width="30" height="25" as="alternateBounds" />
          </mxGeometry>
        </mxCell>
        <mxCell id="GJG5uDYhKZacEUopZmgJ-27" value="prescription_id : Long " style="shape=partialRectangle;overflow=hidden;connectable=0;fillColor=none;top=0;left=0;bottom=0;right=0;align=left;spacingLeft=6;fontStyle=4;fontSize=16;" vertex="1" parent="GJG5uDYhKZacEUopZmgJ-25">
          <mxGeometry x="30" width="270" height="25" as="geometry">
            <mxRectangle width="270" height="25" as="alternateBounds" />
          </mxGeometry>
        </mxCell>
        <mxCell id="GJG5uDYhKZacEUopZmgJ-28" value="" style="shape=partialRectangle;collapsible=0;dropTarget=0;pointerEvents=0;fillColor=none;points=[[0,0.5],[1,0.5]];portConstraint=eastwest;top=0;left=0;right=0;bottom=0;fontSize=16;" vertex="1" parent="GJG5uDYhKZacEUopZmgJ-21">
          <mxGeometry y="75" width="300" height="95" as="geometry" />
        </mxCell>
        <mxCell id="GJG5uDYhKZacEUopZmgJ-29" value="" style="shape=partialRectangle;overflow=hidden;connectable=0;fillColor=none;top=0;left=0;bottom=0;right=0;fontSize=16;" vertex="1" parent="GJG5uDYhKZacEUopZmgJ-28">
          <mxGeometry width="30" height="95" as="geometry">
            <mxRectangle width="30" height="95" as="alternateBounds" />
          </mxGeometry>
        </mxCell>
        <mxCell id="GJG5uDYhKZacEUopZmgJ-30" value="name : String&#xa;dosage : String&#xa;duration : String&#xa;administration_route : String&#xa;side_effects : Text" style="shape=partialRectangle;overflow=hidden;connectable=0;fillColor=none;top=0;left=0;bottom=0;right=0;align=left;spacingLeft=6;fontSize=16;" vertex="1" parent="GJG5uDYhKZacEUopZmgJ-28">
          <mxGeometry x="30" width="270" height="95" as="geometry">
            <mxRectangle width="270" height="95" as="alternateBounds" />
          </mxGeometry>
        </mxCell>
        <mxCell id="GJG5uDYhKZacEUopZmgJ-104" value="" style="edgeStyle=entityRelationEdgeStyle;endArrow=ERzeroToMany;startArrow=ERone;endFill=1;startFill=0;exitX=-0.001;exitY=0.329;exitDx=0;exitDy=0;entryX=0;entryY=0.5;entryDx=0;entryDy=0;exitPerimeter=0;fontSize=16;" edge="1" parent="GJG5uDYhKZacEUopZmgJ-114" source="GJG5uDYhKZacEUopZmgJ-18" target="GJG5uDYhKZacEUopZmgJ-22">
          <mxGeometry width="100" height="100" relative="1" as="geometry">
            <mxPoint x="873" y="1230" as="sourcePoint" />
            <mxPoint x="740" y="1337" as="targetPoint" />
            <Array as="points">
              <mxPoint x="1035.97" y="1285.75" />
              <mxPoint x="1030" y="1337" />
            </Array>
          </mxGeometry>
        </mxCell>
        <mxCell id="GJG5uDYhKZacEUopZmgJ-127" value="&lt;font style=&quot;font-size: 14px;&quot;&gt;Notification_db&lt;/font&gt;" style="shape=folder;fontStyle=1;tabWidth=110;tabHeight=30;tabPosition=left;html=1;boundedLbl=1;labelInHeader=1;container=1;collapsible=0;recursiveResize=0;whiteSpace=wrap;" vertex="1" parent="1">
          <mxGeometry x="1230" y="-240" width="450" height="280" as="geometry" />
        </mxCell>
        <mxCell id="GJG5uDYhKZacEUopZmgJ-73" value="Notification" style="shape=table;startSize=30;container=1;collapsible=1;childLayout=tableLayout;fixedRows=1;rowLines=0;fontStyle=1;align=center;resizeLast=1;fillColor=#dae8fc;strokeColor=#6c8ebf;fontSize=16;" vertex="1" parent="GJG5uDYhKZacEUopZmgJ-127">
          <mxGeometry x="70" y="100" width="320" height="150" as="geometry" />
        </mxCell>
        <mxCell id="GJG5uDYhKZacEUopZmgJ-74" value="" style="shape=partialRectangle;collapsible=0;dropTarget=0;pointerEvents=0;fillColor=none;points=[[0,0.5],[1,0.5]];portConstraint=eastwest;top=0;left=0;right=0;bottom=1;fontSize=16;" vertex="1" parent="GJG5uDYhKZacEUopZmgJ-73">
          <mxGeometry y="30" width="320" height="20" as="geometry" />
        </mxCell>
        <mxCell id="GJG5uDYhKZacEUopZmgJ-75" value="PK" style="shape=partialRectangle;overflow=hidden;connectable=0;fillColor=none;top=0;left=0;bottom=0;right=0;fontStyle=1;fontSize=16;" vertex="1" parent="GJG5uDYhKZacEUopZmgJ-74">
          <mxGeometry width="30" height="20" as="geometry">
            <mxRectangle width="30" height="20" as="alternateBounds" />
          </mxGeometry>
        </mxCell>
        <mxCell id="GJG5uDYhKZacEUopZmgJ-76" value="notification_id long NOT NULL&#xa;" style="shape=partialRectangle;overflow=hidden;connectable=0;fillColor=none;top=0;left=0;bottom=0;right=0;align=left;spacingLeft=6;fontStyle=1;fontSize=16;" vertex="1" parent="GJG5uDYhKZacEUopZmgJ-74">
          <mxGeometry x="30" width="290" height="20" as="geometry">
            <mxRectangle width="290" height="20" as="alternateBounds" />
          </mxGeometry>
        </mxCell>
        <mxCell id="GJG5uDYhKZacEUopZmgJ-77" value="" style="shape=partialRectangle;collapsible=0;dropTarget=0;pointerEvents=0;fillColor=none;points=[[0,0.5],[1,0.5]];portConstraint=eastwest;top=0;left=0;right=0;bottom=0;fontSize=16;" vertex="1" parent="GJG5uDYhKZacEUopZmgJ-73">
          <mxGeometry y="50" width="320" height="30" as="geometry" />
        </mxCell>
        <mxCell id="GJG5uDYhKZacEUopZmgJ-78" value="FK1&#xa;" style="shape=partialRectangle;overflow=hidden;connectable=0;fillColor=none;top=0;left=0;bottom=0;right=0;fontSize=16;" vertex="1" parent="GJG5uDYhKZacEUopZmgJ-77">
          <mxGeometry width="30" height="30" as="geometry">
            <mxRectangle width="30" height="30" as="alternateBounds" />
          </mxGeometry>
        </mxCell>
        <mxCell id="GJG5uDYhKZacEUopZmgJ-79" value="user_id: Long &lt; User_id&gt;&gt;&#xa;" style="shape=partialRectangle;overflow=hidden;connectable=0;fillColor=none;top=0;left=0;bottom=0;right=0;align=left;spacingLeft=6;fontStyle=4;fontSize=16;" vertex="1" parent="GJG5uDYhKZacEUopZmgJ-77">
          <mxGeometry x="30" width="290" height="30" as="geometry">
            <mxRectangle width="290" height="30" as="alternateBounds" />
          </mxGeometry>
        </mxCell>
        <mxCell id="GJG5uDYhKZacEUopZmgJ-80" value="" style="shape=partialRectangle;collapsible=0;dropTarget=0;pointerEvents=0;fillColor=none;points=[[0,0.5],[1,0.5]];portConstraint=eastwest;top=0;left=0;right=0;bottom=0;fontSize=16;" vertex="1" parent="GJG5uDYhKZacEUopZmgJ-73">
          <mxGeometry y="80" width="320" height="60" as="geometry" />
        </mxCell>
        <mxCell id="GJG5uDYhKZacEUopZmgJ-81" value="" style="shape=partialRectangle;overflow=hidden;connectable=0;fillColor=none;top=0;left=0;bottom=0;right=0;fontSize=16;" vertex="1" parent="GJG5uDYhKZacEUopZmgJ-80">
          <mxGeometry width="30" height="60" as="geometry">
            <mxRectangle width="30" height="60" as="alternateBounds" />
          </mxGeometry>
        </mxCell>
        <mxCell id="GJG5uDYhKZacEUopZmgJ-82" value="message : String&#xa;sent_at : DateTime&#xa;status : ENUM(SENT, READ)&#xa;" style="shape=partialRectangle;overflow=hidden;connectable=0;fillColor=none;top=0;left=0;bottom=0;right=0;align=left;spacingLeft=6;fontSize=16;" vertex="1" parent="GJG5uDYhKZacEUopZmgJ-80">
          <mxGeometry x="30" width="290" height="60" as="geometry">
            <mxRectangle width="290" height="60" as="alternateBounds" />
          </mxGeometry>
        </mxCell>
        <mxCell id="GJG5uDYhKZacEUopZmgJ-150" value="&lt;font style=&quot;font-size: 14px;&quot;&gt;Patient_db&lt;/font&gt;" style="shape=folder;fontStyle=1;tabWidth=110;tabHeight=30;tabPosition=left;html=1;boundedLbl=1;labelInHeader=1;container=1;collapsible=0;recursiveResize=0;whiteSpace=wrap;" vertex="1" parent="1">
          <mxGeometry x="490" y="-250" width="500" height="470" as="geometry" />
        </mxCell>
        <mxCell id="GJG5uDYhKZacEUopZmgJ-130" value="Patient" style="shape=table;startSize=30;container=1;collapsible=1;childLayout=tableLayout;fixedRows=1;rowLines=0;fontStyle=1;align=center;resizeLast=1;fillColor=#dae8fc;strokeColor=#6c8ebf;fontSize=16;" vertex="1" parent="GJG5uDYhKZacEUopZmgJ-150">
          <mxGeometry x="90" y="40" width="320" height="140" as="geometry" />
        </mxCell>
        <mxCell id="GJG5uDYhKZacEUopZmgJ-131" value="" style="shape=partialRectangle;collapsible=0;dropTarget=0;pointerEvents=0;fillColor=none;points=[[0,0.5],[1,0.5]];portConstraint=eastwest;top=0;left=0;right=0;bottom=1;fontSize=16;" vertex="1" parent="GJG5uDYhKZacEUopZmgJ-130">
          <mxGeometry y="30" width="320" height="20" as="geometry" />
        </mxCell>
        <mxCell id="GJG5uDYhKZacEUopZmgJ-132" value="PK" style="shape=partialRectangle;overflow=hidden;connectable=0;fillColor=none;top=0;left=0;bottom=0;right=0;fontStyle=1;fontSize=16;" vertex="1" parent="GJG5uDYhKZacEUopZmgJ-131">
          <mxGeometry width="30" height="20" as="geometry">
            <mxRectangle width="30" height="20" as="alternateBounds" />
          </mxGeometry>
        </mxCell>
        <mxCell id="GJG5uDYhKZacEUopZmgJ-133" value="patient_id long NOT NULL&#xa;" style="shape=partialRectangle;overflow=hidden;connectable=0;fillColor=none;top=0;left=0;bottom=0;right=0;align=left;spacingLeft=6;fontStyle=1;fontSize=16;" vertex="1" parent="GJG5uDYhKZacEUopZmgJ-131">
          <mxGeometry x="30" width="290" height="20" as="geometry">
            <mxRectangle width="290" height="20" as="alternateBounds" />
          </mxGeometry>
        </mxCell>
        <mxCell id="GJG5uDYhKZacEUopZmgJ-134" value="" style="shape=partialRectangle;collapsible=0;dropTarget=0;pointerEvents=0;fillColor=none;points=[[0,0.5],[1,0.5]];portConstraint=eastwest;top=0;left=0;right=0;bottom=0;fontSize=16;" vertex="1" parent="GJG5uDYhKZacEUopZmgJ-130">
          <mxGeometry y="50" width="320" height="30" as="geometry" />
        </mxCell>
        <mxCell id="GJG5uDYhKZacEUopZmgJ-135" value="FK1&#xa;" style="shape=partialRectangle;overflow=hidden;connectable=0;fillColor=none;top=0;left=0;bottom=0;right=0;fontSize=16;" vertex="1" parent="GJG5uDYhKZacEUopZmgJ-134">
          <mxGeometry width="30" height="30" as="geometry">
            <mxRectangle width="30" height="30" as="alternateBounds" />
          </mxGeometry>
        </mxCell>
        <mxCell id="GJG5uDYhKZacEUopZmgJ-136" value="user_id: Long &lt; User_id&gt;&gt;&#xa;" style="shape=partialRectangle;overflow=hidden;connectable=0;fillColor=none;top=0;left=0;bottom=0;right=0;align=left;spacingLeft=6;fontStyle=4;fontSize=16;" vertex="1" parent="GJG5uDYhKZacEUopZmgJ-134">
          <mxGeometry x="30" width="290" height="30" as="geometry">
            <mxRectangle width="290" height="30" as="alternateBounds" />
          </mxGeometry>
        </mxCell>
        <mxCell id="GJG5uDYhKZacEUopZmgJ-137" value="" style="shape=partialRectangle;collapsible=0;dropTarget=0;pointerEvents=0;fillColor=none;points=[[0,0.5],[1,0.5]];portConstraint=eastwest;top=0;left=0;right=0;bottom=0;fontSize=16;" vertex="1" parent="GJG5uDYhKZacEUopZmgJ-130">
          <mxGeometry y="80" width="320" height="60" as="geometry" />
        </mxCell>
        <mxCell id="GJG5uDYhKZacEUopZmgJ-138" value="" style="shape=partialRectangle;overflow=hidden;connectable=0;fillColor=none;top=0;left=0;bottom=0;right=0;fontSize=16;" vertex="1" parent="GJG5uDYhKZacEUopZmgJ-137">
          <mxGeometry width="30" height="60" as="geometry">
            <mxRectangle width="30" height="60" as="alternateBounds" />
          </mxGeometry>
        </mxCell>
        <mxCell id="GJG5uDYhKZacEUopZmgJ-139" value="date_of_birth : DateTime&#xa; medical_history : String&#xa; allergies : String" style="shape=partialRectangle;overflow=hidden;connectable=0;fillColor=none;top=0;left=0;bottom=0;right=0;align=left;spacingLeft=6;fontSize=16;" vertex="1" parent="GJG5uDYhKZacEUopZmgJ-137">
          <mxGeometry x="30" width="290" height="60" as="geometry">
            <mxRectangle width="290" height="60" as="alternateBounds" />
          </mxGeometry>
        </mxCell>
        <mxCell id="GJG5uDYhKZacEUopZmgJ-140" value="MedicationReminder" style="shape=table;startSize=30;container=1;collapsible=1;childLayout=tableLayout;fixedRows=1;rowLines=0;fontStyle=1;align=center;resizeLast=1;fillColor=#dae8fc;strokeColor=#6c8ebf;fontSize=16;" vertex="1" parent="GJG5uDYhKZacEUopZmgJ-150">
          <mxGeometry x="75" y="280" width="350" height="150" as="geometry" />
        </mxCell>
        <mxCell id="GJG5uDYhKZacEUopZmgJ-141" value="" style="shape=partialRectangle;collapsible=0;dropTarget=0;pointerEvents=0;fillColor=none;points=[[0,0.5],[1,0.5]];portConstraint=eastwest;top=0;left=0;right=0;bottom=1;fontSize=16;" vertex="1" parent="GJG5uDYhKZacEUopZmgJ-140">
          <mxGeometry y="30" width="350" height="20" as="geometry" />
        </mxCell>
        <mxCell id="GJG5uDYhKZacEUopZmgJ-142" value="PK" style="shape=partialRectangle;overflow=hidden;connectable=0;fillColor=none;top=0;left=0;bottom=0;right=0;fontStyle=1;fontSize=16;" vertex="1" parent="GJG5uDYhKZacEUopZmgJ-141">
          <mxGeometry width="30" height="20" as="geometry">
            <mxRectangle width="30" height="20" as="alternateBounds" />
          </mxGeometry>
        </mxCell>
        <mxCell id="GJG5uDYhKZacEUopZmgJ-143" value="medicationReminder_id long NOT NULL&#xa;" style="shape=partialRectangle;overflow=hidden;connectable=0;fillColor=none;top=0;left=0;bottom=0;right=0;align=left;spacingLeft=6;fontStyle=1;fontSize=16;" vertex="1" parent="GJG5uDYhKZacEUopZmgJ-141">
          <mxGeometry x="30" width="320" height="20" as="geometry">
            <mxRectangle width="320" height="20" as="alternateBounds" />
          </mxGeometry>
        </mxCell>
        <mxCell id="GJG5uDYhKZacEUopZmgJ-144" value="" style="shape=partialRectangle;collapsible=0;dropTarget=0;pointerEvents=0;fillColor=none;points=[[0,0.5],[1,0.5]];portConstraint=eastwest;top=0;left=0;right=0;bottom=0;fontSize=16;" vertex="1" parent="GJG5uDYhKZacEUopZmgJ-140">
          <mxGeometry y="50" width="350" height="40" as="geometry" />
        </mxCell>
        <mxCell id="GJG5uDYhKZacEUopZmgJ-145" value="FK1&#xa;FK2&#xa;" style="shape=partialRectangle;overflow=hidden;connectable=0;fillColor=none;top=0;left=0;bottom=0;right=0;fontSize=16;" vertex="1" parent="GJG5uDYhKZacEUopZmgJ-144">
          <mxGeometry width="30" height="40" as="geometry">
            <mxRectangle width="30" height="40" as="alternateBounds" />
          </mxGeometry>
        </mxCell>
        <mxCell id="GJG5uDYhKZacEUopZmgJ-146" value="medication_id : Long&#xa;patient_id : Long &lt; User_id&gt;&gt;" style="shape=partialRectangle;overflow=hidden;connectable=0;fillColor=none;top=0;left=0;bottom=0;right=0;align=left;spacingLeft=6;fontStyle=4;fontSize=16;" vertex="1" parent="GJG5uDYhKZacEUopZmgJ-144">
          <mxGeometry x="30" width="320" height="40" as="geometry">
            <mxRectangle width="320" height="40" as="alternateBounds" />
          </mxGeometry>
        </mxCell>
        <mxCell id="GJG5uDYhKZacEUopZmgJ-147" value="" style="shape=partialRectangle;collapsible=0;dropTarget=0;pointerEvents=0;fillColor=none;points=[[0,0.5],[1,0.5]];portConstraint=eastwest;top=0;left=0;right=0;bottom=0;fontSize=16;" vertex="1" parent="GJG5uDYhKZacEUopZmgJ-140">
          <mxGeometry y="90" width="350" height="60" as="geometry" />
        </mxCell>
        <mxCell id="GJG5uDYhKZacEUopZmgJ-148" value="" style="shape=partialRectangle;overflow=hidden;connectable=0;fillColor=none;top=0;left=0;bottom=0;right=0;fontSize=16;" vertex="1" parent="GJG5uDYhKZacEUopZmgJ-147">
          <mxGeometry width="30" height="60" as="geometry">
            <mxRectangle width="30" height="60" as="alternateBounds" />
          </mxGeometry>
        </mxCell>
        <mxCell id="GJG5uDYhKZacEUopZmgJ-149" value="reminder_date : DateTime&#xa;sent : Boolean" style="shape=partialRectangle;overflow=hidden;connectable=0;fillColor=none;top=0;left=0;bottom=0;right=0;align=left;spacingLeft=6;fontSize=16;" vertex="1" parent="GJG5uDYhKZacEUopZmgJ-147">
          <mxGeometry x="30" width="320" height="60" as="geometry">
            <mxRectangle width="320" height="60" as="alternateBounds" />
          </mxGeometry>
        </mxCell>
        <mxCell id="GJG5uDYhKZacEUopZmgJ-154" value="" style="edgeStyle=entityRelationEdgeStyle;endArrow=ERzeroToMany;startArrow=ERone;endFill=1;startFill=0;fontSize=16;exitX=0.973;exitY=0.967;exitDx=0;exitDy=0;entryX=0.414;entryY=0.004;entryDx=0;entryDy=0;entryPerimeter=0;exitPerimeter=0;" edge="1" parent="GJG5uDYhKZacEUopZmgJ-150" source="GJG5uDYhKZacEUopZmgJ-137" target="GJG5uDYhKZacEUopZmgJ-140">
          <mxGeometry width="100" height="100" relative="1" as="geometry">
            <mxPoint x="345" y="-20" as="sourcePoint" />
            <mxPoint x="280" y="290" as="targetPoint" />
          </mxGeometry>
        </mxCell>
        <mxCell id="GJG5uDYhKZacEUopZmgJ-109" value="&lt;font style=&quot;font-size: 14px;&quot;&gt;Auth_db&lt;/font&gt;" style="shape=folder;fontStyle=1;tabWidth=110;tabHeight=30;tabPosition=left;html=1;boundedLbl=1;labelInHeader=1;container=1;collapsible=0;recursiveResize=0;whiteSpace=wrap;" vertex="1" parent="1">
          <mxGeometry x="840" y="-940" width="670" height="590" as="geometry" />
        </mxCell>
        <mxCell id="C-vyLk0tnHw3VtMMgP7b-23" value="User" style="shape=table;startSize=30;container=1;collapsible=1;childLayout=tableLayout;fixedRows=1;rowLines=0;fontStyle=1;align=center;resizeLast=1;fillColor=#dae8fc;strokeColor=#6c8ebf;fontSize=16;" parent="GJG5uDYhKZacEUopZmgJ-109" vertex="1">
          <mxGeometry x="80" y="70" width="460" height="180" as="geometry" />
        </mxCell>
        <mxCell id="C-vyLk0tnHw3VtMMgP7b-24" value="" style="shape=partialRectangle;collapsible=0;dropTarget=0;pointerEvents=0;fillColor=none;points=[[0,0.5],[1,0.5]];portConstraint=eastwest;top=0;left=0;right=0;bottom=1;fontSize=16;" parent="C-vyLk0tnHw3VtMMgP7b-23" vertex="1">
          <mxGeometry y="30" width="460" height="20" as="geometry" />
        </mxCell>
        <mxCell id="C-vyLk0tnHw3VtMMgP7b-25" value="PK" style="shape=partialRectangle;overflow=hidden;connectable=0;fillColor=none;top=0;left=0;bottom=0;right=0;fontStyle=1;fontSize=16;" parent="C-vyLk0tnHw3VtMMgP7b-24" vertex="1">
          <mxGeometry width="30" height="20" as="geometry">
            <mxRectangle width="30" height="20" as="alternateBounds" />
          </mxGeometry>
        </mxCell>
        <mxCell id="C-vyLk0tnHw3VtMMgP7b-26" value="user_id long NOT NULL &#xa;&#xa;" style="shape=partialRectangle;overflow=hidden;connectable=0;fillColor=none;top=0;left=0;bottom=0;right=0;align=left;spacingLeft=6;fontStyle=1;fontSize=16;" parent="C-vyLk0tnHw3VtMMgP7b-24" vertex="1">
          <mxGeometry x="30" width="430" height="20" as="geometry">
            <mxRectangle width="430" height="20" as="alternateBounds" />
          </mxGeometry>
        </mxCell>
        <mxCell id="C-vyLk0tnHw3VtMMgP7b-27" value="" style="shape=partialRectangle;collapsible=0;dropTarget=0;pointerEvents=0;fillColor=none;points=[[0,0.5],[1,0.5]];portConstraint=eastwest;top=0;left=0;right=0;bottom=0;fontSize=16;" parent="C-vyLk0tnHw3VtMMgP7b-23" vertex="1">
          <mxGeometry y="50" width="460" height="130" as="geometry" />
        </mxCell>
        <mxCell id="C-vyLk0tnHw3VtMMgP7b-28" value="" style="shape=partialRectangle;overflow=hidden;connectable=0;fillColor=none;top=0;left=0;bottom=0;right=0;fontSize=16;" parent="C-vyLk0tnHw3VtMMgP7b-27" vertex="1">
          <mxGeometry width="30" height="130" as="geometry">
            <mxRectangle width="30" height="130" as="alternateBounds" />
          </mxGeometry>
        </mxCell>
        <mxCell id="C-vyLk0tnHw3VtMMgP7b-29" value="first_name : String&#xa;last_name : String&#xa;email : String &lt;&gt;&#xa;password : String&#xa;created_at : DateTime&#xa;role : ENUM(ADMIN, DOCTOR, PATIENT, PHARMACIST)" style="shape=partialRectangle;overflow=hidden;connectable=0;fillColor=none;top=0;left=0;bottom=0;right=0;align=left;spacingLeft=6;fontSize=16;" parent="C-vyLk0tnHw3VtMMgP7b-27" vertex="1">
          <mxGeometry x="30" width="430" height="130" as="geometry">
            <mxRectangle width="430" height="130" as="alternateBounds" />
          </mxGeometry>
        </mxCell>
        <mxCell id="C-vyLk0tnHw3VtMMgP7b-2" value="Token" style="shape=table;startSize=30;container=1;collapsible=1;childLayout=tableLayout;fixedRows=1;rowLines=0;fontStyle=1;align=center;resizeLast=1;fillColor=#dae8fc;strokeColor=#6c8ebf;fontSize=16;" parent="GJG5uDYhKZacEUopZmgJ-109" vertex="1">
          <mxGeometry x="145" y="355" width="330" height="170" as="geometry" />
        </mxCell>
        <mxCell id="C-vyLk0tnHw3VtMMgP7b-3" value="" style="shape=partialRectangle;collapsible=0;dropTarget=0;pointerEvents=0;fillColor=none;points=[[0,0.5],[1,0.5]];portConstraint=eastwest;top=0;left=0;right=0;bottom=1;fontSize=16;" parent="C-vyLk0tnHw3VtMMgP7b-2" vertex="1">
          <mxGeometry y="30" width="330" height="20" as="geometry" />
        </mxCell>
        <mxCell id="C-vyLk0tnHw3VtMMgP7b-4" value="PK" style="shape=partialRectangle;overflow=hidden;connectable=0;fillColor=none;top=0;left=0;bottom=0;right=0;fontStyle=1;fontSize=16;" parent="C-vyLk0tnHw3VtMMgP7b-3" vertex="1">
          <mxGeometry width="30" height="20" as="geometry">
            <mxRectangle width="30" height="20" as="alternateBounds" />
          </mxGeometry>
        </mxCell>
        <mxCell id="C-vyLk0tnHw3VtMMgP7b-5" value="token_id long NOT NULL " style="shape=partialRectangle;overflow=hidden;connectable=0;fillColor=none;top=0;left=0;bottom=0;right=0;align=left;spacingLeft=6;fontStyle=1;fontSize=16;" parent="C-vyLk0tnHw3VtMMgP7b-3" vertex="1">
          <mxGeometry x="30" width="300" height="20" as="geometry">
            <mxRectangle width="300" height="20" as="alternateBounds" />
          </mxGeometry>
        </mxCell>
        <mxCell id="C-vyLk0tnHw3VtMMgP7b-6" value="" style="shape=partialRectangle;collapsible=0;dropTarget=0;pointerEvents=0;fillColor=none;points=[[0,0.5],[1,0.5]];portConstraint=eastwest;top=0;left=0;right=0;bottom=0;fontSize=16;" parent="C-vyLk0tnHw3VtMMgP7b-2" vertex="1">
          <mxGeometry y="50" width="330" height="30" as="geometry" />
        </mxCell>
        <mxCell id="C-vyLk0tnHw3VtMMgP7b-7" value="FK1" style="shape=partialRectangle;overflow=hidden;connectable=0;fillColor=none;top=0;left=0;bottom=0;right=0;fontSize=16;" parent="C-vyLk0tnHw3VtMMgP7b-6" vertex="1">
          <mxGeometry width="30" height="30" as="geometry">
            <mxRectangle width="30" height="30" as="alternateBounds" />
          </mxGeometry>
        </mxCell>
        <mxCell id="C-vyLk0tnHw3VtMMgP7b-8" value="user_id : int" style="shape=partialRectangle;overflow=hidden;connectable=0;fillColor=none;top=0;left=0;bottom=0;right=0;align=left;spacingLeft=6;fontStyle=4;fontSize=16;" parent="C-vyLk0tnHw3VtMMgP7b-6" vertex="1">
          <mxGeometry x="30" width="300" height="30" as="geometry">
            <mxRectangle width="300" height="30" as="alternateBounds" />
          </mxGeometry>
        </mxCell>
        <mxCell id="C-vyLk0tnHw3VtMMgP7b-9" value="" style="shape=partialRectangle;collapsible=0;dropTarget=0;pointerEvents=0;fillColor=none;points=[[0,0.5],[1,0.5]];portConstraint=eastwest;top=0;left=0;right=0;bottom=0;fontSize=16;" parent="C-vyLk0tnHw3VtMMgP7b-2" vertex="1">
          <mxGeometry y="80" width="330" height="80" as="geometry" />
        </mxCell>
        <mxCell id="C-vyLk0tnHw3VtMMgP7b-10" value="" style="shape=partialRectangle;overflow=hidden;connectable=0;fillColor=none;top=0;left=0;bottom=0;right=0;fontSize=16;" parent="C-vyLk0tnHw3VtMMgP7b-9" vertex="1">
          <mxGeometry width="30" height="80" as="geometry">
            <mxRectangle width="30" height="80" as="alternateBounds" />
          </mxGeometry>
        </mxCell>
        <mxCell id="C-vyLk0tnHw3VtMMgP7b-11" value="token : String&#xa;expired : Boolean&#xa;revoked : Boolean&#xa;token_type : ENUM(BEARER)&#xa;" style="shape=partialRectangle;overflow=hidden;connectable=0;fillColor=none;top=0;left=0;bottom=0;right=0;align=left;spacingLeft=6;fontSize=16;" parent="C-vyLk0tnHw3VtMMgP7b-9" vertex="1">
          <mxGeometry x="30" width="300" height="80" as="geometry">
            <mxRectangle width="300" height="80" as="alternateBounds" />
          </mxGeometry>
        </mxCell>
        <mxCell id="C-vyLk0tnHw3VtMMgP7b-1" value="" style="edgeStyle=entityRelationEdgeStyle;endArrow=ERzeroToMany;startArrow=ERone;endFill=1;startFill=0;fontSize=16;" parent="GJG5uDYhKZacEUopZmgJ-109" source="C-vyLk0tnHw3VtMMgP7b-24" target="C-vyLk0tnHw3VtMMgP7b-6" edge="1">
          <mxGeometry width="100" height="100" relative="1" as="geometry">
            <mxPoint x="-1330" y="840" as="sourcePoint" />
            <mxPoint x="-1230" y="740" as="targetPoint" />
          </mxGeometry>
        </mxCell>
        <mxCell id="C-vyLk0tnHw3VtMMgP7b-12" value="" style="edgeStyle=entityRelationEdgeStyle;endArrow=ERzeroToMany;startArrow=ERone;endFill=1;startFill=0;exitX=0;exitY=0.5;exitDx=0;exitDy=0;fontSize=16;entryX=1;entryY=0.5;entryDx=0;entryDy=0;" parent="1" source="C-vyLk0tnHw3VtMMgP7b-27" target="GJG5uDYhKZacEUopZmgJ-121" edge="1">
          <mxGeometry width="100" height="100" relative="1" as="geometry">
            <mxPoint x="400" y="180" as="sourcePoint" />
            <mxPoint x="810" y="535" as="targetPoint" />
          </mxGeometry>
        </mxCell>
        <mxCell id="GJG5uDYhKZacEUopZmgJ-155" value="" style="edgeStyle=entityRelationEdgeStyle;endArrow=ERzeroToMany;startArrow=ERone;endFill=1;startFill=0;exitX=0.212;exitY=0.985;exitDx=0;exitDy=0;fontSize=16;exitPerimeter=0;entryX=1;entryY=0.5;entryDx=0;entryDy=0;" edge="1" parent="1" source="C-vyLk0tnHw3VtMMgP7b-27" target="GJG5uDYhKZacEUopZmgJ-134">
          <mxGeometry width="100" height="100" relative="1" as="geometry">
            <mxPoint x="990" y="-580" as="sourcePoint" />
            <mxPoint x="410" y="-650" as="targetPoint" />
          </mxGeometry>
        </mxCell>
        <mxCell id="GJG5uDYhKZacEUopZmgJ-156" value="" style="edgeStyle=entityRelationEdgeStyle;endArrow=ERzeroToMany;startArrow=ERone;endFill=1;startFill=0;exitX=1;exitY=0.5;exitDx=0;exitDy=0;entryX=-0.006;entryY=0.283;entryDx=0;entryDy=0;entryPerimeter=0;fontSize=16;" edge="1" parent="1" source="C-vyLk0tnHw3VtMMgP7b-27" target="GJG5uDYhKZacEUopZmgJ-49">
          <mxGeometry width="100" height="100" relative="1" as="geometry">
            <mxPoint x="2124" y="-698" as="sourcePoint" />
            <mxPoint x="1705" y="-608" as="targetPoint" />
            <Array as="points">
              <mxPoint x="2001.97" y="261.75" />
              <mxPoint x="1996" y="313" />
            </Array>
          </mxGeometry>
        </mxCell>
      </root>
    </mxGraphModel>
  </diagram>
</mxfile>
